<svg xmlns="http://www.w3.org/2000/svg" style="display:none">
  <symbol id="i-truck" viewBox="0 0 24 24" fill="none" stroke="currentColor" stroke-width="1.8" stroke-linecap="round" stroke-linejoin="round">
    <path d="M3 7h11v9H3z"/><path d="M14 10h4l3 3v3h-7z"/><circle cx="7" cy="18" r="2"/><circle cx="17" cy="18" r="2"/>
  </symbol>
  <symbol id="i-shield" viewBox="0 0 24 24" fill="none" stroke="currentColor" stroke-width="1.8" stroke-linecap="round" stroke-linejoin="round">
    <path d="M12 3l8 3v6c0 5-3.5 8-8 9-4.5-1-8-4-8-9V6z"/><path d="M9 12l2 2 4-4"/>
  </symbol>
  <symbol id="i-wrench" viewBox="0 0 24 24" fill="none" stroke="currentColor" stroke-width="1.8" stroke-linecap="round" stroke-linejoin="round">
    <path d="M14.7 6.3a4 4 0 0 1 5 5l-2-1-2 2 1 2a4 4 0 0 1-5-5L9 11.5 4 16.5l1.5 1.5 5-5z"/>
  </symbol>
  <symbol id="i-headset" viewBox="0 0 24 24" fill="none" stroke="currentColor" stroke-width="1.8" stroke-linecap="round" stroke-linejoin="round">
    <path d="M4 13a8 8 0 0 1 16 0"/><rect x="3" y="13" width="4" height="7" rx="1.5"/><rect x="17" y="13" width="4" height="7" rx="1.5"/><path d="M19 20a3 3 0 0 1-3 3h-2"/>
  </symbol>
  <symbol id="i-cash" viewBox="0 0 24 24" fill="none" stroke="currentColor" stroke-width="1.8" stroke-linecap="round" stroke-linejoin="round">
    <rect x="3" y="6" width="18" height="12" rx="2"/><circle cx="12" cy="12" r="2.5"/><path d="M6 9v6M18 9v6"/>
  </symbol>
  <symbol id="i-swap" viewBox="0 0 24 24" fill="none" stroke="currentColor" stroke-width="1.8" stroke-linecap="round" stroke-linejoin="round">
    <path d="M4 7h13l-3-3"/><path d="M20 17H7l3 3"/>
  </symbol>
  <symbol id="i-star" viewBox="0 0 24 24" fill="currentColor">
    <path d="M12 2l3 6.5 7 1-5 5 1.5 7-6.5-3.5L5.5 21.5 7 14.5 2 9.5l7-1z"/>
  </symbol>
  <symbol id="i-wa" viewBox="0 0 24 24" fill="currentColor">
    <path d="M20.5 3.5A11 11 0 0 0 3.6 17.7L2 22l4.4-1.5A11 11 0 1 0 20.5 3.5zM12 20a8 8 0 0 1-4.1-1.1l-.3-.2-2.6.9.9-2.5-.2-.3A8 8 0 1 1 12 20zm4.5-5.7c-.2-.1-1.4-.7-1.6-.8-.2-.1-.4-.1-.6.1-.2.2-.7.8-.8 1-.2.2-.3.2-.5.1-1.2-.6-2.1-1.1-2.9-2.5-.2-.4.2-.4.6-1.3.1-.2 0-.4 0-.5 0-.1-.6-1.5-.8-2-.2-.5-.5-.5-.6-.5h-.5c-.2 0-.5.1-.7.3-.2.3-.9 1-.9 2.3s1 2.7 1.1 2.9c.1.2 1.9 2.9 4.6 4 1.6.7 2.2.7 3 .6.5-.1 1.4-.6 1.6-1.1.2-.5.2-1 .1-1.1-.1-.1-.2-.2-.5-.3z"/>
  </symbol>
  <symbol id="i-ig" viewBox="0 0 24 24" fill="none" stroke="currentColor" stroke-width="1.8">
    <rect x="3" y="3" width="18" height="18" rx="5"/><circle cx="12" cy="12" r="4"/><circle cx="17.5" cy="6.5" r="1" fill="currentColor"/>
  </symbol>
  <symbol id="i-fb" viewBox="0 0 24 24" fill="currentColor">
    <path d="M22 12a10 10 0 1 0-11.6 9.9V15h-2.5v-3h2.5V9.5c0-2.5 1.5-3.9 3.8-3.9 1.1 0 2.2.2 2.2.2v2.4h-1.2c-1.2 0-1.6.8-1.6 1.6V12h2.7l-.4 3h-2.3v6.9A10 10 0 0 0 22 12z"/>
  </symbol>
  <symbol id="i-tt" viewBox="0 0 24 24" fill="currentColor">
    <path d="M19 8.5a6 6 0 0 1-3.5-1.1V15a5 5 0 1 1-5-5v3a2 2 0 1 0 2 2V2h3a4 4 0 0 0 3.5 4z"/>
  </symbol>
  <symbol id="i-menu" viewBox="0 0 24 24" fill="none" stroke="currentColor" stroke-width="2" stroke-linecap="round">
    <path d="M4 7h16M4 12h16M4 17h16"/>
  </symbol>
  <symbol id="i-close" viewBox="0 0 24 24" fill="none" stroke="currentColor" stroke-width="2" stroke-linecap="round">
    <path d="M6 6l12 12M18 6L6 18"/>
  </symbol>
  <symbol id="i-pin" viewBox="0 0 24 24" fill="none" stroke="currentColor" stroke-width="1.8" stroke-linecap="round" stroke-linejoin="round">
    <path d="M12 22s7-7 7-12a7 7 0 1 0-14 0c0 5 7 12 7 12z"/><circle cx="12" cy="10" r="2.5"/>
  </symbol>
  <symbol id="i-phone" viewBox="0 0 24 24" fill="none" stroke="currentColor" stroke-width="1.8" stroke-linecap="round" stroke-linejoin="round">
    <path d="M22 16.9v3a2 2 0 0 1-2.2 2 19.8 19.8 0 0 1-8.6-3.1 19.5 19.5 0 0 1-6-6A19.8 19.8 0 0 1 2 4.2 2 2 0 0 1 4 2h3a2 2 0 0 1 2 1.7c.1.9.3 1.7.6 2.5a2 2 0 0 1-.5 2.1L7.9 9.5a16 16 0 0 0 6 6l1.3-1.3a2 2 0 0 1 2.1-.5c.8.3 1.6.5 2.5.6a2 2 0 0 1 1.7 2z"/>
  </symbol>
  <symbol id="i-mail" viewBox="0 0 24 24" fill="none" stroke="currentColor" stroke-width="1.8" stroke-linecap="round" stroke-linejoin="round">
    <rect x="3" y="5" width="18" height="14" rx="2"/><path d="M3 7l9 6 9-6"/>
  </symbol>
  <symbol id="i-clock" viewBox="0 0 24 24" fill="none" stroke="currentColor" stroke-width="1.8" stroke-linecap="round" stroke-linejoin="round">
    <circle cx="12" cy="12" r="9"/><path d="M12 7v5l3 2"/>
  </symbol>
  <symbol id="i-check" viewBox="0 0 24 24" fill="none" stroke="currentColor" stroke-width="2" stroke-linecap="round" stroke-linejoin="round">
    <path d="M5 12l5 5L20 7"/>
  </symbol>
  <symbol id="i-arrow" viewBox="0 0 24 24" fill="none" stroke="currentColor" stroke-width="2" stroke-linecap="round" stroke-linejoin="round">
    <path d="M5 12h14M13 6l6 6-6 6"/>
  </symbol>
  <symbol id="i-bolt" viewBox="0 0 24 24" fill="currentColor">
    <path d="M13 2L4 14h7l-1 8 9-12h-7z"/>
  </symbol>
  <symbol id="i-search" viewBox="0 0 24 24" fill="none" stroke="currentColor" stroke-width="2" stroke-linecap="round" stroke-linejoin="round">
    <circle cx="11" cy="11" r="7"/><path d="M21 21l-4.3-4.3"/>
  </symbol>
</svg>
